HIERARCHY
ROOT Hips
{
	OFFSET 0.000000 83.214638 0.000000
	CHANNELS 6 Xposition Yposition Zposition Xrotation Yrotation Zrotation
	JOINT Pelvis
	{
		OFFSET 0.000000 0.000000 0.000000
		CHANNELS 3 Xrotation Yrotation Zrotation
		JOINT LeftUpLeg
		{
			OFFSET 8.479700 -4.795502 -0.379100
			CHANNELS 3 Xrotation Yrotation Zrotation
			JOINT LeftLeg
			{
				OFFSET 0.024144 -32.555107 0.112900
				CHANNELS 3 Xrotation Yrotation Zrotation
				JOINT LeftFoot
				{
					OFFSET -0.024144 -32.638630 -3.012600
					CHANNELS 3 Xrotation Yrotation Zrotation
					JOINT LeftToeBase
					{
						OFFSET 0.970200 -13.225400 11.864200
						CHANNELS 3 Xrotation Yrotation Zrotation
						End Site
						{
							OFFSET 0.000000 12.319262 0.000000
						}
					}
					JOINT LFootTongue
					{
						OFFSET 1.142400 -1.059800 6.665200
						CHANNELS 3 Xrotation Yrotation Zrotation
						End Site
						{
							OFFSET 0.000000 12.319262 0.000000
						}
					}
				}
				JOINT LeftPantLeg
				{
					OFFSET 0.918482 -16.533964 -2.284700
					CHANNELS 3 Xrotation Yrotation Zrotation
					End Site
					{
						OFFSET 0.350399 24.744368 0.000000
					}
				}
			}
		}
		JOINT RightUpLeg
		{
			OFFSET -8.479700 -4.795502 -0.379100
			CHANNELS 3 Xrotation Yrotation Zrotation
			JOINT RightLeg
			{
				OFFSET -0.023144 -32.555092 0.112900
				CHANNELS 3 Xrotation Yrotation Zrotation
				JOINT RightFoot
				{
					OFFSET 0.023144 -32.638641 -3.012700
					CHANNELS 3 Xrotation Yrotation Zrotation
					JOINT RightToeBase
					{
						OFFSET -0.970200 -13.225400 11.864200
						CHANNELS 3 Xrotation Yrotation Zrotation
						End Site
						{
							OFFSET 0.000000 12.319244 0.000000
						}
					}
					JOINT RFootTongue
					{
						OFFSET -1.142200 -1.059800 6.665200
						CHANNELS 3 Xrotation Yrotation Zrotation
						End Site
						{
							OFFSET 0.000000 12.319243 0.000000
						}
					}
				}
				JOINT RightPantLeg
				{
					OFFSET -0.919482 -16.533978 -2.284800
					CHANNELS 3 Xrotation Yrotation Zrotation
					End Site
					{
						OFFSET -0.350400 24.744419 0.000000
					}
				}
			}
		}
	}
	JOINT Spine
	{
		OFFSET 0.000000 7.722000 1.166200
		CHANNELS 3 Xrotation Yrotation Zrotation
		JOINT Spine1
		{
			OFFSET 0.000000 12.024101 0.248800
			CHANNELS 3 Xrotation Yrotation Zrotation
			JOINT Spine2
			{
				OFFSET 0.000000 11.502998 -0.491200
				CHANNELS 3 Xrotation Yrotation Zrotation
				JOINT Neck
				{
					OFFSET 0.000000 18.430702 -3.123100
					CHANNELS 3 Xrotation Yrotation Zrotation
					JOINT Head
					{
						OFFSET 0.000000 9.051102 1.034000
						CHANNELS 3 Xrotation Yrotation Zrotation
						JOINT HairB
						{
							OFFSET 0.208400 24.786102 24.822300
							CHANNELS 3 Xrotation Yrotation Zrotation
							End Site
							{
								OFFSET 0.000000 32.263779 0.000000
							}
						}
						JOINT HairA
						{
							OFFSET -7.081100 24.428299 23.196600
							CHANNELS 3 Xrotation Yrotation Zrotation
							End Site
							{
								OFFSET 0.000000 32.263779 0.000000
							}
						}
						JOINT Hat
						{
							OFFSET 16.728800 15.048294 -15.439601
							CHANNELS 3 Xrotation Yrotation Zrotation
							End Site
							{
								OFFSET 0.000000 32.263779 0.000000
							}
						}
					}
				}
				JOINT LeftShoulder
				{
					OFFSET 6.197800 13.665199 -4.064700
					CHANNELS 3 Xrotation Yrotation Zrotation
					JOINT LeftArm
					{
						OFFSET 7.778100 -0.187103 -1.709300
						CHANNELS 3 Xrotation Yrotation Zrotation
						JOINT LeftForeArm
						{
							OFFSET 22.049376 0.000000 0.000000
							CHANNELS 3 Xrotation Yrotation Zrotation
							JOINT LeftHand
							{
								OFFSET 23.009392 0.000000 0.000000
								CHANNELS 3 Xrotation Yrotation Zrotation
								JOINT LeftHandThumb1
								{
									OFFSET 3.507191 -2.063065 3.133727
									CHANNELS 3 Xrotation Yrotation Zrotation
									JOINT LeftHandThumb2
									{
										OFFSET 3.101337 -1.790558 1.790558
										CHANNELS 3 Xrotation Yrotation Zrotation
										JOINT LeftHandThumb3
										{
											OFFSET 3.058640 -1.765907 1.765906
											CHANNELS 3 Xrotation Yrotation Zrotation
											End Site
											{
												OFFSET -0.415260 3.926476 -0.049563
											}
										}
									}
								}
								JOINT LeftHandIndex1
								{
									OFFSET 11.334419 -0.901459 3.706815
									CHANNELS 3 Xrotation Yrotation Zrotation
									JOINT LeftHandIndex2
									{
										OFFSET 3.283112 0.000000 0.000000
										CHANNELS 3 Xrotation Yrotation Zrotation
										JOINT LeftHandIndex3
										{
											OFFSET 3.323853 0.000000 0.000000
											CHANNELS 3 Xrotation Yrotation Zrotation
											End Site
											{
												OFFSET -1.135597 3.097809 0.402452
											}
										}
									}
								}
								JOINT LeftHandMiddle1
								{
									OFFSET 11.335861 0.000000 0.000000
									CHANNELS 3 Xrotation Yrotation Zrotation
									JOINT LeftHandMiddle2
									{
										OFFSET 3.410492 0.000000 0.000000
										CHANNELS 3 Xrotation Yrotation Zrotation
										JOINT LeftHandMiddle3
										{
											OFFSET 3.312172 0.000000 0.000000
											CHANNELS 3 Xrotation Yrotation Zrotation
											End Site
											{
												OFFSET -1.150200 3.080154 0.400270
											}
										}
									}
								}
								JOINT LeftHandRing1
								{
									OFFSET 11.514786 -0.013176 -3.003090
									CHANNELS 3 Xrotation Yrotation Zrotation
									JOINT LeftHandRing2
									{
										OFFSET 3.053307 0.000000 0.000000
										CHANNELS 3 Xrotation Yrotation Zrotation
										JOINT LeftHandRing3
										{
											OFFSET 3.295807 0.000000 0.000000
											CHANNELS 3 Xrotation Yrotation Zrotation
											End Site
											{
												OFFSET -1.281006 3.013344 0.375733
											}
										}
									}
								}
								JOINT LeftHandPinky1
								{
									OFFSET 10.518692 -0.960396 -5.730441
									CHANNELS 3 Xrotation Yrotation Zrotation
									JOINT LeftHandPinky2
									{
										OFFSET 2.861649 0.000000 0.000000
										CHANNELS 3 Xrotation Yrotation Zrotation
										JOINT LeftHandPinky3
										{
											OFFSET 2.863380 0.000000 0.000000
											CHANNELS 3 Xrotation Yrotation Zrotation
											End Site
											{
												OFFSET -0.843597 2.711159 0.369971
											}
										}
									}
								}
							}
							JOINT LSleeve
							{
								OFFSET 6.676277 -0.344902 -1.011730
								CHANNELS 3 Xrotation Yrotation Zrotation
								End Site
								{
									OFFSET 0.000000 14.885353 0.000000
								}
							}
						}
					}
				}
				JOINT RightShoulder
				{
					OFFSET -6.197800 13.665199 -4.064700
					CHANNELS 3 Xrotation Yrotation Zrotation
					JOINT RightArm
					{
						OFFSET -7.778100 -0.187103 -1.709300
						CHANNELS 3 Xrotation Yrotation Zrotation
						JOINT RightForeArm
						{
							OFFSET -22.049376 0.000000 0.000000
							CHANNELS 3 Xrotation Yrotation Zrotation
							JOINT RightHand
							{
								OFFSET -23.009392 0.000000 0.000000
								CHANNELS 3 Xrotation Yrotation Zrotation
								JOINT RightHandThumb1
								{
									OFFSET -3.507191 -2.063065 3.133727
									CHANNELS 3 Xrotation Yrotation Zrotation
									JOINT RightHandThumb2
									{
										OFFSET -3.101337 -1.790558 1.790558
										CHANNELS 3 Xrotation Yrotation Zrotation
										JOINT RightHandThumb3
										{
											OFFSET -3.058640 -1.765907 1.765906
											CHANNELS 3 Xrotation Yrotation Zrotation
											End Site
											{
												OFFSET 0.415260 3.926476 -0.049563
											}
										}
									}
								}
								JOINT RightHandIndex1
								{
									OFFSET -11.334419 -0.901459 3.706815
									CHANNELS 3 Xrotation Yrotation Zrotation
									JOINT RightHandIndex2
									{
										OFFSET -3.283112 0.000000 0.000000
										CHANNELS 3 Xrotation Yrotation Zrotation
										JOINT RightHandIndex3
										{
											OFFSET -3.323853 0.000000 0.000000
											CHANNELS 3 Xrotation Yrotation Zrotation
											End Site
											{
												OFFSET 1.135597 3.097809 0.402452
											}
										}
									}
								}
								JOINT RightHandMiddle1
								{
									OFFSET -11.335861 0.000000 0.000000
									CHANNELS 3 Xrotation Yrotation Zrotation
									JOINT RightHandMiddle2
									{
										OFFSET -3.410492 0.000000 0.000000
										CHANNELS 3 Xrotation Yrotation Zrotation
										JOINT RightHandMiddle3
										{
											OFFSET -3.312172 0.000000 0.000000
											CHANNELS 3 Xrotation Yrotation Zrotation
											End Site
											{
												OFFSET 1.150200 3.080154 0.400270
											}
										}
									}
								}
								JOINT RightHandRing1
								{
									OFFSET -11.514786 -0.013176 -3.003090
									CHANNELS 3 Xrotation Yrotation Zrotation
									JOINT RightHandRing2
									{
										OFFSET -3.053307 0.000000 0.000000
										CHANNELS 3 Xrotation Yrotation Zrotation
										JOINT RightHandRing3
										{
											OFFSET -3.295807 0.000000 0.000000
											CHANNELS 3 Xrotation Yrotation Zrotation
											End Site
											{
												OFFSET 1.281006 3.013344 0.375733
											}
										}
									}
								}
								JOINT RightHandPinky1
								{
									OFFSET -10.518692 -0.960396 -5.730441
									CHANNELS 3 Xrotation Yrotation Zrotation
									JOINT RightHandPinky2
									{
										OFFSET -2.861649 0.000000 0.000000
										CHANNELS 3 Xrotation Yrotation Zrotation
										JOINT RightHandPinky3
										{
											OFFSET -2.863380 0.000000 0.000000
											CHANNELS 3 Xrotation Yrotation Zrotation
											End Site
											{
												OFFSET 0.843597 2.711159 0.369971
											}
										}
									}
								}
							}
							JOINT RSleeve
							{
								OFFSET -6.676277 -0.344902 -1.011730
								CHANNELS 3 Xrotation Yrotation Zrotation
								End Site
								{
									OFFSET 0.000000 14.885353 0.000000
								}
							}
						}
					}
				}
				JOINT Backpack
				{
					OFFSET 0.000000 -2.471497 36.677502
					CHANNELS 3 Xrotation Yrotation Zrotation
					End Site
					{
						OFFSET 0.000000 20.427315 0.000000
					}
				}
				JOINT Hood
				{
					OFFSET 0.000000 18.754097 -10.431000
					CHANNELS 3 Xrotation Yrotation Zrotation
					JOINT Hood1
					{
						OFFSET 0.000000 -5.011002 -7.685901
						CHANNELS 3 Xrotation Yrotation Zrotation
						End Site
						{
							OFFSET 0.000000 9.175140 0.000000
						}
					}
				}
				JOINT LHoodieString
				{
					OFFSET 5.250500 16.397697 3.089900
					CHANNELS 3 Xrotation Yrotation Zrotation
					JOINT LHoodieString1
					{
						OFFSET 0.257700 -6.364304 3.694600
						CHANNELS 3 Xrotation Yrotation Zrotation
						JOINT LHoodieString2
						{
							OFFSET 0.000000 -9.643799 2.679100
							CHANNELS 3 Xrotation Yrotation Zrotation
							End Site
							{
								OFFSET 0.000000 10.009018 0.000000
							}
						}
					}
				}
				JOINT RHoodieString
				{
					OFFSET -5.250500 16.397697 3.089900
					CHANNELS 3 Xrotation Yrotation Zrotation
					JOINT RHoodieString1
					{
						OFFSET -0.257700 -6.364304 3.694600
						CHANNELS 3 Xrotation Yrotation Zrotation
						JOINT RHoodieString2
						{
							OFFSET 0.000000 -9.643799 2.679100
							CHANNELS 3 Xrotation Yrotation Zrotation
							End Site
							{
								OFFSET 0.000000 10.009018 0.000000
							}
						}
					}
				}
			}
			JOINT LBackpack_Strap
			{
				OFFSET 15.223200 -7.719803 -6.610900
				CHANNELS 3 Xrotation Yrotation Zrotation
				End Site
				{
					OFFSET 0.000000 16.040596 0.000000
				}
			}
			JOINT RBackpack_Strap
			{
				OFFSET -15.223000 -7.719803 -6.610900
				CHANNELS 3 Xrotation Yrotation Zrotation
				End Site
				{
					OFFSET 0.000000 16.040596 0.000000
				}
			}
		}
	}
	JOINT BoyFacialAnim_Joint
	{
		OFFSET 1.000000 -82.208099 -1.550900
		CHANNELS 3 Xrotation Yrotation Zrotation
		End Site
		{
			OFFSET 0.000000 30.012791 0.000000
		}
	}
}
MOTION
Frames: 5
Frame Time: 0.033333
0.125128 38.455940 -0.594398 -40.570671 -32.643697 -20.109165 0.000001 -0.000001 -0.000001 -71.751472 -4.228211 23.888385 120.627056 -9.187692 -0.347285 -13.824033 -5.436141 -0.969876 -0.000000 0.000003 -0.000000 -0.000000 0.000003 0.000000 0.000001 0.000001 -0.000000 -20.695651 26.053524 -7.548289 140.992043 10.542371 1.235973 -53.267508 -19.151261 23.277401 0.000000 -0.000001 -0.000001 0.000000 -0.000001 -0.000001 0.000000 -0.000000 0.000000 58.814684 2.976390 1.514769 10.731519 0.746586 -4.522442 17.515496 -0.086528 -4.563473 -10.626367 7.119022 2.460940 -15.542027 20.383999 10.543842 0.000002 -0.000001 0.000000 0.000002 -0.000001 0.000000 0.000002 -0.000001 0.000000 -37.559193 -4.830598 1.310662 -73.285963 -19.463476 -69.165521 -0.000016 -49.482634 -0.000007 -122.217547 3.140000 22.355300 5.223686 11.164437 3.554788 19.905357 0.177864 8.086065 -0.000001 0.000002 0.000001 -0.214140 3.931940 -36.747258 2.942533 5.079140 -60.148913 -0.000003 -0.000000 -0.000002 0.407751 5.508444 -52.453090 3.387137 5.308620 -65.057470 0.000001 -0.000000 0.000000 -0.072673 5.737711 -61.061393 4.055040 5.569505 -72.094921 -0.000003 0.000001 -0.000004 -6.568943 4.544074 -72.425318 3.299643 5.267233 -64.107923 -0.000000 -0.000003 0.000001 -0.000000 -0.000001 0.000000 -42.134112 -9.770489 -7.576127 -51.815284 45.269551 94.909126 -0.000065 103.657430 0.000053 -37.420042 -24.461421 -24.583534 8.375801 -4.904559 11.023585 21.619704 -18.183485 -18.377558 0.000001 -0.000000 -0.000001 -0.920228 1.685531 12.432633 0.748094 -2.533490 32.898289 0.000001 -0.000001 0.000005 3.415207 -7.188042 51.648350 6.296561 -4.359680 110.631292 0.000001 0.000001 0.000002 -3.346490 -2.602002 57.009789 5.441063 -4.590863 99.700667 -0.000000 0.000001 -0.000003 -3.993092 -3.305336 64.592477 4.058717 -4.618648 82.608782 0.000001 -0.000001 -0.000002 0.000002 0.000002 -0.000002 0.000002 0.000000 0.000001 0.000002 0.000000 0.000001 0.000002 0.000000 0.000001 0.000002 0.000000 0.000001 0.000002 0.000000 0.000001 0.000004 0.000000 0.000001 0.000002 0.000000 0.000001 0.000002 0.000000 0.000001 0.000004 0.000000 0.000001 -0.000001 0.000001 -0.000000 -0.000001 0.000001 -0.000000 0.000001 -0.000001 -0.000001 
0.126926 38.455994 -0.604897 -40.642320 -32.594394 -20.213443 0.000001 -0.000000 -0.000000 -71.698770 -4.300197 23.926873 120.629651 -9.224741 -0.346993 -13.800520 -5.439041 -0.944720 0.000000 0.000000 0.000000 0.000000 0.000000 0.000000 -0.000000 -0.000000 -0.000000 -20.684326 25.953324 -7.512302 140.982700 10.540352 1.235612 -53.238596 -19.116115 23.224513 0.000000 0.000001 -0.000001 0.000000 0.000001 -0.000001 -0.000000 0.000002 -0.000002 59.002637 2.432419 1.590151 10.764477 0.678340 -4.431646 17.544161 -0.131357 -4.457543 -10.489254 7.412158 2.073505 -14.621980 20.877071 10.306279 0.000001 0.000000 0.000002 0.000001 0.000000 0.000002 0.000001 0.000000 0.000002 -37.558343 -4.633238 1.612228 -71.573600 -18.635937 -68.218939 0.000043 -51.808679 0.000030 -122.447383 2.077909 23.782420 5.223686 11.164450 3.554792 19.905357 0.177854 8.086058 0.000002 0.000001 -0.000001 -0.694694 3.268703 -36.570571 2.971191 5.095411 -60.472132 -0.000003 -0.000000 -0.000000 0.333840 5.525713 -53.763305 3.417136 5.322404 -65.381180 0.000006 0.000001 0.000000 0.070040 5.863159 -61.740095 4.035583 5.563208 -71.894346 0.000002 0.000000 -0.000004 -6.473795 4.589955 -72.499227 3.314656 5.274465 -64.271356 -0.000000 0.000000 -0.000000 -0.000000 0.000002 0.000002 -41.988185 -9.570610 -6.886863 -51.973389 45.469594 95.039132 0.000256 103.909614 -0.000256 -38.054378 -25.601518 -24.238275 8.138132 -4.337838 10.979173 22.405686 -16.617113 -17.635624 0.000001 0.000001 0.000001 -0.559297 1.366928 8.807531 1.541853 -3.463506 47.983920 -0.000001 0.000000 0.000000 3.095488 -6.953084 51.201878 6.295925 -4.359904 110.622939 0.000002 0.000001 -0.000000 -3.475073 -2.519342 57.021636 5.431337 -4.592518 99.579199 -0.000001 -0.000000 0.000002 -4.136834 -3.354026 65.391009 4.076681 -4.620953 82.831910 -0.000000 -0.000001 0.000002 0.000000 -0.000003 0.000002 0.000001 0.000000 -0.000002 0.000001 0.000000 -0.000002 0.000001 0.000000 -0.000002 0.000001 0.000000 -0.000002 0.000001 0.000000 -0.000000 -0.000000 -0.000001 -0.000000 0.000001 0.000000 -0.000002 0.000001 0.000000 -0.000000 -0.000000 -0.000001 -0.000000 -0.000001 0.000001 -0.000000 -0.000001 0.000001 -0.000000 0.000001 -0.000000 -0.000000 
0.263887 38.358383 -0.630672 -41.177114 -32.686413 -20.341748 -0.000001 0.000001 -0.000001 -71.433684 -4.001824 23.878220 120.677203 -8.971000 -0.349862 -13.753324 -5.440171 -0.959709 0.000000 -0.000000 -0.000000 0.000000 -0.000000 -0.000000 -0.000000 0.000001 -0.000000 -20.442481 26.657470 -7.877483 141.137199 10.640708 1.246611 -53.061995 -18.829617 23.568196 0.000002 0.000000 -0.000000 0.000002 0.000000 -0.000000 0.000000 -0.000000 0.000001 59.495456 1.355860 1.905607 10.561414 0.543047 -4.121444 17.335275 -0.190381 -4.119944 -10.772708 7.883745 1.486407 -9.951205 22.109570 8.791500 0.000002 -0.000000 -0.000001 0.000002 -0.000000 -0.000001 0.000002 -0.000000 -0.000001 -37.468393 -4.344183 0.867095 -69.954565 -17.700570 -66.843079 0.000001 -53.774032 0.000007 -122.564125 1.681980 24.964516 5.223684 11.164450 3.554789 19.905362 0.177854 8.086064 -0.000003 0.000003 -0.000001 -0.449752 3.779482 -38.770852 2.953157 5.085195 -60.268968 0.000002 0.000002 -0.000003 0.254539 5.531921 -54.843325 3.378200 5.304475 -64.960741 0.000001 -0.000000 -0.000001 0.017193 5.861438 -62.117347 4.094634 5.582091 -72.502444 -0.000001 -0.000001 0.000001 -6.659499 4.685745 -73.237031 3.332999 5.283220 -64.470893 0.000001 0.000001 -0.000002 -0.000000 0.000003 0.000001 -42.062180 -9.479380 -7.119808 -53.323020 46.249496 96.375595 0.000128 103.290588 -0.000133 -38.678825 -26.014333 -24.190317 8.150604 -4.365063 10.981484 22.323835 -16.582166 -17.528851 -0.000002 -0.000001 0.000001 -0.340179 1.282412 5.993784 2.163730 -3.934685 57.600372 -0.000001 -0.000000 0.000004 2.951406 -6.810938 52.047694 6.303219 -4.357167 110.718992 0.000001 0.000000 0.000003 -3.719595 -2.382935 57.184762 5.432436 -4.592329 99.592757 0.000001 0.000000 0.000000 -4.139898 -3.320778 65.174512 4.069396 -4.620030 82.741458 -0.000001 -0.000001 0.000002 -0.000001 -0.000003 -0.000001 -0.000001 0.000001 -0.000001 -0.000001 0.000001 -0.000001 -0.000001 0.000001 -0.000001 -0.000001 0.000001 -0.000001 -0.000001 0.000001 -0.000001 -0.000001 0.000000 -0.000002 -0.000001 0.000001 -0.000001 -0.000001 0.000001 -0.000001 -0.000001 0.000000 -0.000002 -0.000000 0.000000 -0.000000 -0.000000 0.000000 -0.000000 -0.000001 0.000001 -0.000001 
0.830351 38.560402 -1.210129 -42.016650 -33.218202 -20.149963 0.000001 0.000000 0.000002 -70.789050 -2.669938 23.521857 119.326123 -7.977100 -0.362181 -12.769947 -5.437882 -1.207846 0.000000 0.000001 -0.000000 0.000000 0.000001 0.000000 -0.000001 0.000001 0.000000 -22.486448 28.455779 -7.717595 141.246960 10.592543 1.240992 -50.395991 -18.477564 24.430723 0.000001 -0.000004 0.000001 0.000001 -0.000004 0.000001 -0.000000 -0.000000 -0.000003 59.430009 3.084939 3.701563 9.799273 0.605336 -4.203503 16.590477 -0.133654 -4.233653 -12.057323 7.423082 1.928362 -7.157894 21.584704 7.671457 -0.000001 -0.000001 -0.000001 -0.000001 -0.000001 -0.000001 -0.000001 -0.000001 -0.000001 -37.340583 -4.255349 -0.679973 -71.047778 -18.557902 -68.946067 0.000001 -48.048803 0.000011 -123.684276 3.145220 21.548620 5.223685 11.164445 3.554791 19.905355 0.177875 8.086059 0.000004 -0.000001 0.000002 -0.185797 4.165209 -39.587934 2.958369 5.088145 -60.327598 0.000004 0.000000 -0.000002 0.514944 5.784765 -56.148837 3.373480 5.302279 -64.909617 0.000003 0.000000 0.000000 0.268159 6.053928 -63.038247 4.080688 5.577703 -72.359010 0.000001 -0.000002 -0.000002 -6.780549 4.797009 -73.934626 3.310938 5.272675 -64.230935 0.000006 0.000000 -0.000002 0.000001 0.000001 -0.000001 -42.697743 -9.717594 -9.751906 -53.649428 46.489372 95.863795 0.000057 101.601871 -0.000080 -39.980519 -26.206229 -24.705498 8.192994 -4.461925 10.988658 22.011031 -17.190920 -17.710257 -0.000002 0.000000 0.000001 -0.262489 1.298423 4.866870 2.141287 -3.920391 57.272803 -0.000001 -0.000001 -0.000000 3.074337 -6.861956 53.409692 6.298444 -4.358972 110.656120 0.000001 0.000000 0.000001 -3.987569 -2.300275 57.786542 5.451042 -4.589140 99.825134 -0.000000 0.000000 0.000004 -4.236100 -3.288884 65.261474 4.016710 -4.613045 82.086907 0.000001 -0.000000 0.000000 -0.000000 0.000000 0.000001 0.000001 0.000000 -0.000000 0.000001 0.000000 -0.000000 0.000001 0.000000 -0.000000 0.000001 0.000000 -0.000000 0.000001 0.000000 -0.000000 0.000002 0.000001 -0.000000 0.000001 0.000000 -0.000000 0.000001 0.000000 -0.000000 0.000002 0.000001 -0.000000 0.000002 -0.000003 -0.000000 0.000002 -0.000003 -0.000000 0.000001 0.000000 0.000002 
0.979404 38.989029 -1.676662 -42.584317 -33.340718 -20.007221 -0.000001 0.000001 -0.000000 -69.655758 -1.861652 23.433151 117.948542 -7.750438 -0.365188 -12.214746 -5.429480 -1.420538 -0.000000 -0.000001 0.000000 -0.000000 -0.000001 0.000000 0.000000 -0.000000 -0.000000 -23.575134 28.478132 -7.279910 140.911843 10.184147 1.215290 -48.643586 -18.500819 24.335730 0.000003 -0.000000 -0.000000 0.000003 -0.000000 -0.000000 -0.000000 -0.000001 -0.000001 59.490306 4.874788 4.202516 9.823629 0.763335 -3.861909 16.634333 0.102454 -3.948433 -12.366405 7.603880 1.564969 -7.976390 21.444255 7.696108 -0.000000 -0.000001 -0.000002 -0.000000 -0.000001 -0.000002 -0.000000 -0.000001 -0.000002 -37.500361 -5.272699 -0.129184 -72.560474 -19.952705 -69.196831 -0.000015 -45.636612 -0.000016 -122.650554 3.904913 21.914336 5.223680 11.164428 3.554790 19.905364 0.177859 8.086067 0.000004 0.000003 -0.000000 -0.344728 3.763561 -36.839967 2.918146 5.065133 -59.873090 -0.000002 -0.000000 -0.000004 0.246378 5.405197 -52.804128 3.353148 5.292738 -64.689514 0.000005 -0.000001 0.000002 -0.466625 5.397942 -59.542809 3.978466 5.544301 -71.304149 -0.000001 -0.000003 0.000001 -6.988605 4.323334 -72.031482 3.321451 5.277722 -64.345416 -0.000005 -0.000002 0.000003 0.000003 0.000000 -0.000001 -42.633682 -9.603770 -9.502144 -52.256589 45.741995 94.763267 0.000307 101.857026 -0.000291 -41.448791 -24.810368 -25.878176 8.078011 -4.188857 10.967776 22.048814 -17.310413 -17.647197 -0.000001 0.000001 0.000001 -0.245418 1.539395 4.372952 2.113242 -3.902282 56.861680 -0.000001 -0.000001 0.000002 3.030407 -6.843234 52.955017 6.298094 -4.359097 110.651605 -0.000000 0.000001 -0.000002 -3.530406 -2.563462 57.587360 5.446258 -4.589977 99.765554 -0.000001 -0.000000 -0.000001 -4.016074 -3.405396 65.360833 4.004976 -4.611409 81.941213 -0.000002 0.000000 0.000000 -0.000001 -0.000003 0.000002 -0.000003 0.000000 -0.000000 -0.000003 0.000000 -0.000000 -0.000003 0.000000 -0.000000 -0.000003 0.000000 -0.000000 -0.000003 0.000000 0.000000 -0.000002 0.000000 -0.000001 -0.000003 0.000000 -0.000000 -0.000003 0.000000 0.000000 -0.000002 0.000000 -0.000001 -0.000000 -0.000001 0.000001 -0.000000 -0.000001 0.000001 -0.000001 0.000001 -0.000000 
